<?xml version="1.0" encoding="UTF-8" standalone="no"?>
<!DOCTYPE svg PUBLIC "-//W3C//DTD SVG 1.1//EN"
 "http://www.w3.org/Graphics/SVG/1.1/DTD/svg11.dtd">
<!-- Generated by graphviz version 2.38.0 (20140413.2041)
 -->
<!-- Title: G Pages: 1 -->
<svg width="132pt" height="227pt"
 viewBox="0.00 0.00 132.13 227.48" xmlns="http://www.w3.org/2000/svg" xmlns:xlink="http://www.w3.org/1999/xlink">
<g id="graph0" class="graph" transform="scale(1 1) rotate(0) translate(69.3819 111.934)">
<title>G</title>
<polygon fill="#7887ab" stroke="none" points="-69.3819,115.544 -69.3819,-111.934 62.7432,-111.934 62.7432,115.544 -69.3819,115.544"/>
<!-- node0 -->
<g id="node1" class="node"><title>node0</title>
<polygon fill="#162955" stroke="none" points="-9.38187,-107.934 -65.3819,-107.934 -65.3819,-13.9335 -9.38187,-13.9335 -9.38187,-107.934"/>
<polygon fill="none" stroke="#162955" points="-56.3819,-81.9335 -56.3819,-102.934 -18.3819,-102.934 -18.3819,-81.9335 -56.3819,-81.9335"/>
<text text-anchor="start" x="-48.8819" y="-89.7335" font-family="Times,serif" font-weight="bold" font-size="14.00">title</text>
<polygon fill="#4f628e" stroke="none" points="-56.3819,-60.9335 -56.3819,-81.9335 -18.3819,-81.9335 -18.3819,-60.9335 -56.3819,-60.9335"/>
<polygon fill="none" stroke="#162955" points="-56.3819,-60.9335 -56.3819,-81.9335 -18.3819,-81.9335 -18.3819,-60.9335 -56.3819,-60.9335"/>
<text text-anchor="start" x="-52.8819" y="-67.7335" font-family="Times,serif" font-size="14.00">index</text>
<polygon fill="none" stroke="#162955" points="-56.3819,-39.9335 -56.3819,-60.9335 -18.3819,-60.9335 -18.3819,-39.9335 -56.3819,-39.9335"/>
<text text-anchor="start" x="-53.3819" y="-46.7335" font-family="Times,serif" font-size="14.00">field1</text>
<polygon fill="none" stroke="#162955" points="-56.3819,-18.9335 -56.3819,-39.9335 -18.3819,-39.9335 -18.3819,-18.9335 -56.3819,-18.9335"/>
<text text-anchor="start" x="-53.3819" y="-25.7335" font-family="Times,serif" font-size="14.00">field2</text>
<polygon fill="none" stroke="#162955" points="-57.3819,-17.9335 -57.3819,-103.934 -17.3819,-103.934 -17.3819,-17.9335 -57.3819,-17.9335"/>
</g>
<!-- node1 -->
<g id="node2" class="node"><title>node1</title>
<polygon fill="#162955" stroke="none" points="34.6387,-50.6105 -21.3613,-50.6105 -21.3613,43.3895 34.6387,43.3895 34.6387,-50.6105"/>
<polygon fill="none" stroke="#162955" points="-12.3613,-24.6105 -12.3613,-45.6105 25.6387,-45.6105 25.6387,-24.6105 -12.3613,-24.6105"/>
<text text-anchor="start" x="-4.86132" y="-32.4105" font-family="Times,serif" font-weight="bold" font-size="14.00">title</text>
<polygon fill="#4f628e" stroke="none" points="-12.3613,-3.61049 -12.3613,-24.6105 25.6387,-24.6105 25.6387,-3.61049 -12.3613,-3.61049"/>
<polygon fill="none" stroke="#162955" points="-12.3613,-3.61049 -12.3613,-24.6105 25.6387,-24.6105 25.6387,-3.61049 -12.3613,-3.61049"/>
<text text-anchor="start" x="-8.86132" y="-10.4105" font-family="Times,serif" font-size="14.00">index</text>
<polygon fill="none" stroke="#162955" points="-12.3613,17.3895 -12.3613,-3.61049 25.6387,-3.61049 25.6387,17.3895 -12.3613,17.3895"/>
<text text-anchor="start" x="-9.36132" y="10.5895" font-family="Times,serif" font-size="14.00">field1</text>
<polygon fill="none" stroke="#162955" points="-12.3613,38.3895 -12.3613,17.3895 25.6387,17.3895 25.6387,38.3895 -12.3613,38.3895"/>
<text text-anchor="start" x="-9.36132" y="31.5895" font-family="Times,serif" font-size="14.00">field2</text>
<polygon fill="none" stroke="#162955" points="-13.3613,39.3895 -13.3613,-46.6105 26.6387,-46.6105 26.6387,39.3895 -13.3613,39.3895"/>
</g>
<!-- node0&#45;&gt;node1 -->
<g id="edge1" class="edge"><title>node0:f0&#45;&gt;node1:f1</title>
<path fill="none" stroke="black" d="M-18.3819,-92.9335C-18.3819,-92.9335 -14.7803,-46.0803 -13.1484,-24.8499"/>
<polygon fill="black" stroke="black" points="-9.63812,-24.8494 -12.3613,-14.6105 -16.6175,-24.3128 -9.63812,-24.8494"/>
</g>
<!-- node2 -->
<g id="node3" class="node"><title>node2</title>
<polygon fill="#162955" stroke="none" points="58.7432,17.544 2.74319,17.544 2.74319,111.544 58.7432,111.544 58.7432,17.544"/>
<polygon fill="none" stroke="#162955" points="11.7432,43.544 11.7432,22.544 49.7432,22.544 49.7432,43.544 11.7432,43.544"/>
<text text-anchor="start" x="14.7432" y="35.744" font-family="Times,serif" font-weight="bold" font-size="14.00" fill="#ff0000">port1</text>
<polygon fill="#4f628e" stroke="none" points="11.7432,64.544 11.7432,43.544 49.7432,43.544 49.7432,64.544 11.7432,64.544"/>
<polygon fill="none" stroke="#162955" points="11.7432,64.544 11.7432,43.544 49.7432,43.544 49.7432,64.544 11.7432,64.544"/>
<text text-anchor="start" x="15.2432" y="57.744" font-family="Times,serif" font-size="14.00">index</text>
<polygon fill="none" stroke="#162955" points="11.7432,85.544 11.7432,64.544 49.7432,64.544 49.7432,85.544 11.7432,85.544"/>
<text text-anchor="start" x="14.7432" y="78.744" font-family="Times,serif" font-size="14.00">field1</text>
<polygon fill="none" stroke="#162955" points="11.7432,106.544 11.7432,85.544 49.7432,85.544 49.7432,106.544 11.7432,106.544"/>
<text text-anchor="start" x="14.7432" y="99.744" font-family="Times,serif" font-size="14.00">field2</text>
<polygon fill="none" stroke="#162955" points="10.7432,107.544 10.7432,21.544 50.7432,21.544 50.7432,107.544 10.7432,107.544"/>
</g>
<!-- node1&#45;&gt;node2 -->
<g id="edge2" class="edge"><title>node1:f0&#45;&gt;node2:f1</title>
<path fill="none" stroke="black" d="M25.6387,-35.6105C25.6387,-35.6105 16.9012,20.4498 13.2833,43.6623"/>
<polygon fill="black" stroke="black" points="16.7415,44.2023 11.7432,53.544 9.82502,43.1243 16.7415,44.2023"/>
</g>
</g>
</svg>
