<?xml version="1.0" encoding="UTF-8" standalone="no"?>
<!DOCTYPE svg PUBLIC "-//W3C//DTD SVG 1.1//EN"
 "http://www.w3.org/Graphics/SVG/1.1/DTD/svg11.dtd">
<!-- Generated by graphviz version 2.38.0 (20140413.2041)
 -->
<!-- Title: %3 Pages: 1 -->
<svg width="86pt" height="496pt"
 viewBox="0.00 0.00 85.88 495.68" xmlns="http://www.w3.org/2000/svg" xmlns:xlink="http://www.w3.org/1999/xlink">
<g id="graph0" class="graph" transform="scale(1 1) rotate(0) translate(40.7021 246.953)">
<title>%3</title>
<polygon fill="#7887ab" stroke="none" points="-40.7021,248.729 -40.7021,-246.953 45.1734,-246.953 45.1734,248.729 -40.7021,248.729"/>
<!-- 1 -->
<g id="node1" class="node"><title>1</title>
<polygon fill="none" stroke="#718ea4" points="-26.5125,-216.953 -26.5125,-237.953 11.4875,-237.953 11.4875,-216.953 -26.5125,-216.953"/>
<text text-anchor="start" x="-19.0125" y="-224.753" font-family="Times,serif" font-weight="bold" font-size="14.00">title</text>
<polygon fill="#4f628e" stroke="none" points="-26.5125,-195.953 -26.5125,-216.953 11.4875,-216.953 11.4875,-195.953 -26.5125,-195.953"/>
<polygon fill="none" stroke="#718ea4" points="-26.5125,-195.953 -26.5125,-216.953 11.4875,-216.953 11.4875,-195.953 -26.5125,-195.953"/>
<text text-anchor="start" x="-23.0125" y="-202.753" font-family="Times,serif" font-size="14.00">index</text>
<polygon fill="none" stroke="#718ea4" points="-26.5125,-174.953 -26.5125,-195.953 11.4875,-195.953 11.4875,-174.953 -26.5125,-174.953"/>
<text text-anchor="start" x="-23.5125" y="-181.753" font-family="Times,serif" font-size="14.00">field1</text>
<polygon fill="none" stroke="#718ea4" points="-26.5125,-153.953 -26.5125,-174.953 11.4875,-174.953 11.4875,-153.953 -26.5125,-153.953"/>
<text text-anchor="start" x="-23.5125" y="-160.753" font-family="Times,serif" font-size="14.00">field2</text>
<polygon fill="none" stroke="#718ea4" points="-27.5125,-152.953 -27.5125,-238.953 12.4875,-238.953 12.4875,-152.953 -27.5125,-152.953"/>
</g>
<!-- 2 -->
<g id="node2" class="node"><title>2</title>
<polygon fill="none" stroke="#718ea4" points="-8.32658,-21.0888 -8.32658,-42.0888 32.6734,-42.0888 32.6734,-21.0888 -8.32658,-21.0888"/>
<text text-anchor="start" x="-5.32658" y="-28.8888" font-family="Times,serif" font-weight="bold" font-size="14.00">node2</text>
<polygon fill="#4f628e" stroke="none" points="-8.32658,-0.0887558 -8.32658,-21.0888 32.6734,-21.0888 32.6734,-0.0887558 -8.32658,-0.0887558"/>
<polygon fill="none" stroke="#718ea4" points="-8.32658,-0.0887558 -8.32658,-21.0888 32.6734,-21.0888 32.6734,-0.0887558 -8.32658,-0.0887558"/>
<text text-anchor="start" x="-3.32658" y="-6.88876" font-family="Times,serif" font-size="14.00">index</text>
<polygon fill="none" stroke="#718ea4" points="-8.32658,20.9112 -8.32658,-0.0887558 32.6734,-0.0887558 32.6734,20.9112 -8.32658,20.9112"/>
<text text-anchor="start" x="-3.82658" y="14.1112" font-family="Times,serif" font-size="14.00">field1</text>
<polygon fill="none" stroke="#718ea4" points="-8.32658,41.9112 -8.32658,20.9112 32.6734,20.9112 32.6734,41.9112 -8.32658,41.9112"/>
<text text-anchor="start" x="-3.82658" y="35.1112" font-family="Times,serif" font-size="14.00">field2</text>
<polygon fill="none" stroke="#718ea4" points="-9.82658,42.9112 -9.82658,-43.0888 33.1734,-43.0888 33.1734,42.9112 -9.82658,42.9112"/>
</g>
<!-- 1&#45;&gt;2 -->
<g id="edge1" class="edge"><title>1:f0&#45;&gt;2:f1</title>
<path fill="none" stroke="black" d="M1.33046,-227.953C1.33046,-227.953 1.33046,-21.0888 1.33046,-21.0888"/>
<polygon fill="black" stroke="black" points="4.83056,-21.0887 1.33046,-11.0888 -2.16944,-21.0888 4.83056,-21.0887"/>
</g>
<!-- 3 -->
<g id="node3" class="node"><title>3</title>
<polygon fill="none" stroke="#718ea4" points="-27.2021,176.729 -27.2021,155.729 13.7979,155.729 13.7979,176.729 -27.2021,176.729"/>
<text text-anchor="start" x="-24.2021" y="168.929" font-family="Times,serif" font-weight="bold" font-size="14.00">node3</text>
<polygon fill="#4f628e" stroke="none" points="-27.2021,197.729 -27.2021,176.729 13.7979,176.729 13.7979,197.729 -27.2021,197.729"/>
<polygon fill="none" stroke="#718ea4" points="-27.2021,197.729 -27.2021,176.729 13.7979,176.729 13.7979,197.729 -27.2021,197.729"/>
<text text-anchor="start" x="-22.2021" y="190.929" font-family="Times,serif" font-size="14.00">index</text>
<polygon fill="none" stroke="#718ea4" points="-27.2021,218.729 -27.2021,197.729 13.7979,197.729 13.7979,218.729 -27.2021,218.729"/>
<text text-anchor="start" x="-22.7021" y="211.929" font-family="Times,serif" font-size="14.00">field1</text>
<polygon fill="none" stroke="#718ea4" points="-27.2021,239.729 -27.2021,218.729 13.7979,218.729 13.7979,239.729 -27.2021,239.729"/>
<text text-anchor="start" x="-22.7021" y="232.929" font-family="Times,serif" font-size="14.00">field2</text>
<polygon fill="none" stroke="#718ea4" points="-28.7021,240.729 -28.7021,154.729 14.2979,154.729 14.2979,240.729 -28.7021,240.729"/>
</g>
<!-- 2&#45;&gt;3 -->
<g id="edge2" class="edge"><title>2:f1&#45;&gt;3:f2</title>
<path fill="none" stroke="black" d="M2.23567,-11.0888C2.23567,-11.0888 2.23567,198.729 2.23567,198.729"/>
<polygon fill="black" stroke="black" points="5.73577,198.729 2.23567,208.729 -1.26423,198.729 5.73577,198.729"/>
</g>
</g>
</svg>
